Coordinates
version=1
nRows=13
nColumns=40
inDegrees=yes

Units are S.I. units (second, meters, Newtons, ...)
If the header above contains a line with 'inDegrees', this indicates whether rotational values are in degrees (yes) or radians (no).

endheader
time	pelvis_tilt	pelvis_list	pelvis_rotation	pelvis_tx	pelvis_ty	pelvis_tz	hip_flexion_r	hip_adduction_r	hip_rotation_r	knee_angle_r	knee_angle_r_beta	ankle_angle_r	subtalar_angle_r	mtp_angle_r	hip_flexion_l	hip_adduction_l	hip_rotation_l	knee_angle_l	knee_angle_l_beta	ankle_angle_l	subtalar_angle_l	mtp_angle_l	lumbar_extension	lumbar_bending	lumbar_rotation	arm_flex_r	arm_add_r	arm_rot_r	elbow_flex_r	pro_sup_r	wrist_flex_r	wrist_dev_r	arm_flex_l	arm_add_l	arm_rot_l	elbow_flex_l	pro_sup_l	wrist_flex_l	wrist_dev_l
      2.87500000	     -1.74319382	     -3.68265172	     -5.94604302	     -0.38475763	      0.99345512	     -1.04614664	     48.35993605	      2.44075922	     -5.79187074	      5.99311711	      0.10459963	      3.27481599	      0.00000000	      0.00000000	     27.46365475	     -3.36757804	     -5.14482022	     44.70968588	      0.78033123	      6.12640301	      0.00000000	      0.00000000	     -7.73814210	     -0.15217119	      6.56339405	     89.95896330	     -7.26223076	     24.77145488	     38.56682915	     65.50318486	      0.00000000	      0.00000000	     89.92441384	    -38.95009629	      9.42503642	     41.10176284	     81.59252284	      0.00000000	      0.00000000
      2.88000000	     -1.80525945	     -3.65477286	     -5.92565731	     -0.38520807	      0.99281549	     -1.04617425	     48.46116476	      2.39551735	     -5.80662116	      5.99421631	      0.10461881	      3.32695751	      0.00000000	      0.00000000	     27.65539566	     -3.33591527	     -5.10261301	     44.88163954	      0.78333238	      6.17335378	      0.00000000	      0.00000000	     -7.71075993	     -0.16404208	      6.58874437	     89.95921907	     -7.26730161	     24.76740039	     38.63004897	     65.24737362	      0.00000000	      0.00000000	     89.92485152	    -38.87142157	      9.36233006	     41.16159163	     81.20521864	      0.00000000	      0.00000000
      2.88500000	     -1.86068459	     -3.65811992	     -5.88649175	     -0.38566285	      0.99218365	     -1.04614006	     48.56989964	      2.37050712	     -5.90407312	      6.03300695	      0.10529584	      3.38515328	      0.00000000	      0.00000000	     27.83014128	     -3.31381041	     -4.99429757	     45.04356201	      0.78615846	      6.17447099	      0.00000000	      0.00000000	     -7.70755102	     -0.13656500	      6.56609605	     89.95939299	     -7.16816948	     24.56901235	     38.71550019	     65.16623853	      0.00000000	      0.00000000	     89.92549823	    -38.83792609	      9.18130591	     41.21537269	     81.42366491	      0.00000000	      0.00000000
      2.89000000	     -1.89432295	     -3.70183128	     -5.84101827	     -0.38601771	      0.99152427	     -1.04609455	     48.62953026	      2.37173291	     -6.02717713	      6.02577745	      0.10516966	      3.34875057	      0.00000000	      0.00000000	     28.00085983	     -3.33809178	     -4.88921572	     45.26577849	      0.79003687	      6.27327629	      0.00000000	      0.00000000	     -7.71405816	     -0.06626346	      6.55441716	     89.95959980	     -7.07562020	     24.42404771	     38.78853986	     64.93627143	      0.00000000	      0.00000000	     89.92606282	    -38.78380937	      9.03677622	     41.24375310	     81.31244100	      0.00000000	      0.00000000
      2.89500000	     -1.94078621	     -3.72157749	     -5.82452551	     -0.38642613	      0.99087949	     -1.04607945	     48.71203279	      2.37509319	     -6.10628959	      6.03822748	      0.10538695	      3.51864665	      0.00000000	      0.00000000	     28.16040680	     -3.33928478	     -4.80635683	     45.43147595	      0.79292884	      6.39339456	      0.00000000	      0.00000000	     -7.70905684	     -0.02676670	      6.54878590	     89.95981048	     -6.99438104	     24.38643029	     38.86913728	     64.40523795	      0.00000000	      0.00000000	     89.92657392	    -38.78649676	      8.97153556	     41.33327619	     81.19547894	      0.00000000	      0.00000000
      2.90000000	     -1.98302270	     -3.73541223	     -5.82228856	     -0.38687725	      0.99022426	     -1.04603102	     48.79836216	      2.38076698	     -6.15214321	      6.05889469	      0.10574766	      3.51954328	      0.00000000	      0.00000000	     28.33091128	     -3.34349549	     -4.70954700	     45.61402039	      0.79611484	      6.48337849	      0.00000000	      0.00000000	     -7.70384887	      0.02075721	      6.57732035	     89.96004965	     -6.88824930	     24.20064505	     38.93362303	     64.26835927	      0.00000000	      0.00000000	     89.92714983	    -38.74889612	      8.86255583	     41.35697544	     81.06915778	      0.00000000	      0.00000000
      2.90500000	     -2.01842359	     -3.69119262	     -5.81772875	     -0.38726665	      0.98960509	     -1.04602357	     48.87515014	      2.34017734	     -6.13904188	      6.06017373	      0.10576998	      3.55174504	      0.00000000	      0.00000000	     28.47597752	     -3.28017146	     -4.66437986	     45.76968655	      0.79883173	      6.61731813	      0.00000000	      0.00000000	     -7.70526041	     -0.01221819	      6.60539155	     89.96017778	     -6.83272796	     24.12383421	     38.99893357	     64.01454625	      0.00000000	      0.00000000	     89.92768564	    -38.68141734	      8.70362795	     41.43860586	     80.93626453	      0.00000000	      0.00000000
      2.91000000	     -2.03954620	     -3.74883546	     -5.77104455	     -0.38762787	      0.98900898	     -1.04597757	     48.90272492	      2.34632355	     -6.18933670	      6.01307857	      0.10494802	      3.47514722	      0.00000000	      0.00000000	     28.60818444	     -3.29708153	     -4.52161021	     45.92962181	      0.80162312	      6.66437160	      0.00000000	      0.00000000	     -7.72302268	      0.07159737	      6.63001877	     89.96038518	     -6.78245710	     24.23582866	     39.14747855	     61.68355624	      0.00000000	      0.00000000	     89.92825232	    -38.58427718	      8.92363057	     41.51620519	     77.26884759	      0.00000000	      0.00000000
      2.91500000	     -2.09333384	     -3.71636547	     -5.80613329	     -0.38806385	      0.98835410	     -1.04588372	     49.02070489	      2.35137668	     -6.22162438	      6.04983780	      0.10558959	      3.45984722	      0.00000000	      0.00000000	     28.77791966	     -3.26992764	     -4.49070832	     46.10363893	      0.80466030	      6.71917142	      0.00000000	      0.00000000	     -7.71206992	      0.05943838	      6.63768135	     89.96057662	     -6.62406205	     23.95827348	     39.14997725	     62.95811106	      0.00000000	      0.00000000	     89.92868610	    -38.64872848	      8.55408774	     41.57107975	     80.61522618	      0.00000000	      0.00000000
      2.92000000	     -2.15887408	     -3.73968644	     -5.82026693	     -0.38854085	      0.98767001	     -1.04579417	     49.12481944	      2.38230211	     -6.23130737	      6.03869938	      0.10539519	      3.39138493	      0.00000000	      0.00000000	     28.96673972	     -3.29056040	     -4.42557741	     46.27868978	      0.80771551	      6.87381966	      0.00000000	      0.00000000	     -7.68553503	      0.11849422	      6.67618761	     89.96077615	     -6.50945662	     23.79081550	     39.21966028	     63.37415458	      0.00000000	      0.00000000	     89.92910239	    -38.64609780	      8.47842074	     41.57961408	     80.55380755	      0.00000000	      0.00000000
      2.92500000	     -2.22352248	     -3.76170061	     -5.83730455	     -0.38905455	      0.98699105	     -1.04566956	     49.22836888	      2.42034189	     -6.24452273	      6.02985710	      0.10524086	      3.34003753	      0.00000000	      0.00000000	     29.15743176	     -3.30115299	     -4.31507071	     46.45235477	      0.81074654	      6.95272971	      0.00000000	      0.00000000	     -7.67161448	      0.16331783	      6.71985628	     89.96101524	     -6.36597021	     23.63488593	     39.30060488	     62.83765252	      0.00000000	      0.00000000	     89.92955609	    -38.59704846	      8.35993792	     41.61244692	     80.36538501	      0.00000000	      0.00000000
      2.93000000	     -2.27271994	     -3.82060863	     -5.81701766	     -0.38951538	      0.98634768	     -1.04565891	     49.30497888	      2.45422654	     -6.33500142	      6.00664706	      0.10483577	      3.28871936	      0.00000000	      0.00000000	     29.34110630	     -3.32029760	     -4.17284697	     46.65541176	      0.81429055	      7.09729146	      0.00000000	      0.00000000	     -7.66563405	      0.26151768	      6.75985069	     89.96121639	     -6.26680515	     23.60262945	     39.39778755	     62.22641676	      0.00000000	      0.00000000	     89.92991996	    -38.53438898	      8.25822296	     41.63554935	     80.26835051	      0.00000000	      0.00000000
      2.93500000	     -2.27457654	     -3.86165489	     -5.79399364	     -0.38997099	      0.98573467	     -1.04564624	     49.33333402	      2.48507486	     -6.48876084	      5.96272037	      0.10406910	      3.27051518	      0.00000000	      0.00000000	     29.48552398	     -3.31236054	     -3.99359108	     46.88956917	      0.81837737	      7.20236963	      0.00000000	      0.00000000	     -7.69637927	      0.31741957	      6.86008569	     89.96127970	     -6.22571860	     23.83961599	     39.64300670	     57.52391365	      0.00000000	      0.00000000	     89.93069737	    -38.29985295	      9.20581314	     41.89354934	     68.73522241	      0.00000000	      0.00000000
